<svg xmlns="http://www.w3.org/2000/svg" viewBox="0 0 512 512" style="enable-background:new 0 0 512 512" xml:space="preserve"><path style="fill:#5890c4" d="M0 0h512v512H0z"/><path style="opacity:.1;fill:#040000" d="M512 204.749V512H258.816L87.962 341.145l-1.434-1.433-11.725-11.725 226.713-226.713h107.008l34.099 34.099z"/><path style="fill:#e6d588" d="M424.907 115.341H152.124c-12.579 0-25.085 12.06-27.926 26.904L86.608 329.32c-2.742 14.328 5.026 25.918 17.345 25.918h140.221l71.785 55.494-1.436-55.494h66.182c12.319 0 24.817-11.59 27.921-25.918l33.229-187.075c3.216-14.844-4.369-26.904-16.948-26.904z"/><path style="fill:#fff" d="m425.164 128.154-33.229 187.084c-3.123 14.336-15.616 25.907-27.904 25.907H86.784c-12.032-.307-19.558-11.776-16.896-25.907l37.632-187.084c2.816-14.848 15.309-26.88 27.904-26.88h273.101c8.55.153 14.694 5.786 16.691 14.08.256 1.024.461 2.048.512 3.123.358 3.021.153 6.246-.564 9.677z"/><path style="fill:#fff" d="M181.89 305.913h115.025l2.347 90.736z"/><path style="fill:#e6d588" d="m376.53 171.031-236.435.93 4.556-22.039 235.899-.928zm-11.167 61.214-237.923.936 4.613-22.317 237.381-.934zm-71.092 61.833-179.565.707 4.672-22.599 179.153-.705z"/><path style="opacity:.04;fill:#040000" d="m425.164 128.154-33.229 187.084c-3.123 14.336-15.616 25.907-27.904 25.907H297.83l1.434 55.501-71.782-55.501h-72.038l239.872-239.871h13.21c8.55.153 14.694 5.786 16.691 14.08.256 1.024.461 2.048.512 3.123.357 3.021.152 6.246-.565 9.677z"/></svg>